# xmcd
#
# Track frame offsets: 
#        150
#        12238
#        25333
#        37576
#        49980
#        61495
#        73877
#        86924
#
# Disc length: 1331 seconds
#
# Revision: 0
# Processed by: cddbd v1.5.2PL0 Copyright (c) Steve Scherf et al.
# Submitted via: ExactAudioCopy v1.0b3
#
DISCID=68053108
DTITLE=Hank Williams - Hank Williams Sings
DYEAR=1951
DGENRE=Country
TTITLE0=Lost Highway
TTITLE1=I've Just Told Mama Goodbye
TTITLE2=I Saw The Light
TTITLE3=Six More Miles (To The Graveyard)
TTITLE4=A Mansion On The Hill
TTITLE5=Wealth Won't Save Your Soul
TTITLE6=Wedding Bells
TTITLE7=A House Without Love
EXTD=
EXTT0=
EXTT1=
EXTT2=
EXTT3=
EXTT4=
EXTT5=
EXTT6=
EXTT7=
PLAYORDER=
